<svg xmlns="http://www.w3.org/2000/svg" width="520" height="264" viewBox="0 0 520 264" role="img" aria-label="Most used languages for badal8381">
  <rect x="0.5" y="0.5" width="519" height="263" rx="4" fill="#F4F5F2" stroke="#D9DAD2"/>
  <text x="28" y="32" font-family="'SFMono-Regular','IBM Plex Mono',Consolas,'Courier New',monospace" font-size="11" letter-spacing="2" fill="#57606E">LEDGER · LANGUAGES BY CODE SIZE (OWN REPOS, NO FORKS)</text>
  <line x1="28" y1="42" x2="492" y2="42" stroke="#1A2330" stroke-width="2"/>
  
  <text x="28" y="64" font-family="'Segoe UI',system-ui,-apple-system,sans-serif" font-size="13" fill="#1A2330">TypeScript</text>
  <rect x="190" y="53" width="240" height="12" rx="2" fill="#D9DAD2" opacity="0.5"/>
  <rect x="190" y="53" width="179.0" height="12" rx="2" fill="#3178c6"/>
  <text x="492" y="64" text-anchor="end" font-family="'SFMono-Regular','IBM Plex Mono',Consolas,'Courier New',monospace" font-size="12.5" fill="#57606E">74.6%</text>
  <text x="28" y="94" font-family="'Segoe UI',system-ui,-apple-system,sans-serif" font-size="13" fill="#1A2330">Python</text>
  <rect x="190" y="83" width="240" height="12" rx="2" fill="#D9DAD2" opacity="0.5"/>
  <rect x="190" y="83" width="44.0" height="12" rx="2" fill="#3572A5"/>
  <text x="492" y="94" text-anchor="end" font-family="'SFMono-Regular','IBM Plex Mono',Consolas,'Courier New',monospace" font-size="12.5" fill="#57606E">18.3%</text>
  <text x="28" y="124" font-family="'Segoe UI',system-ui,-apple-system,sans-serif" font-size="13" fill="#1A2330">JavaScript</text>
  <rect x="190" y="113" width="240" height="12" rx="2" fill="#D9DAD2" opacity="0.5"/>
  <rect x="190" y="113" width="11.8" height="12" rx="2" fill="#f1e05a"/>
  <text x="492" y="124" text-anchor="end" font-family="'SFMono-Regular','IBM Plex Mono',Consolas,'Courier New',monospace" font-size="12.5" fill="#57606E">4.9%</text>
  <text x="28" y="154" font-family="'Segoe UI',system-ui,-apple-system,sans-serif" font-size="13" fill="#1A2330">Java</text>
  <rect x="190" y="143" width="240" height="12" rx="2" fill="#D9DAD2" opacity="0.5"/>
  <rect x="190" y="143" width="3.0" height="12" rx="2" fill="#b07219"/>
  <text x="492" y="154" text-anchor="end" font-family="'SFMono-Regular','IBM Plex Mono',Consolas,'Courier New',monospace" font-size="12.5" fill="#57606E">1.0%</text>
  <text x="28" y="184" font-family="'Segoe UI',system-ui,-apple-system,sans-serif" font-size="13" fill="#1A2330">PLpgSQL</text>
  <rect x="190" y="173" width="240" height="12" rx="2" fill="#D9DAD2" opacity="0.5"/>
  <rect x="190" y="173" width="3.0" height="12" rx="2" fill="#336790"/>
  <text x="492" y="184" text-anchor="end" font-family="'SFMono-Regular','IBM Plex Mono',Consolas,'Courier New',monospace" font-size="12.5" fill="#57606E">0.7%</text>
  <text x="28" y="214" font-family="'Segoe UI',system-ui,-apple-system,sans-serif" font-size="13" fill="#1A2330">C</text>
  <rect x="190" y="203" width="240" height="12" rx="2" fill="#D9DAD2" opacity="0.5"/>
  <rect x="190" y="203" width="3.0" height="12" rx="2" fill="#555555"/>
  <text x="492" y="214" text-anchor="end" font-family="'SFMono-Regular','IBM Plex Mono',Consolas,'Courier New',monospace" font-size="12.5" fill="#57606E">0.5%</text>
</svg>